<svg width="512" height="512" viewBox="0 0 512 512" fill="none" xmlns="http://www.w3.org/2000/svg">
  <defs>
    <linearGradient id="tn_bg" x1="76" y1="56" x2="448" y2="454" gradientUnits="userSpaceOnUse">
      <stop stop-color="#FFFDFC"/>
      <stop offset="1" stop-color="#F8EFE8"/>
    </linearGradient>
    <radialGradient id="tn_glow" cx="0" cy="0" r="1" gradientUnits="userSpaceOnUse" gradientTransform="translate(382 138) rotate(130.763) scale(264.435)">
      <stop stop-color="#F1D5CA" stop-opacity="0.55"/>
      <stop offset="1" stop-color="#F1D5CA" stop-opacity="0"/>
    </radialGradient>
    <filter id="tn_shadow" x="26" y="26" width="460" height="460" filterUnits="userSpaceOnUse" color-interpolation-filters="sRGB">
      <feFlood flood-opacity="0" result="BackgroundImageFix"/>
      <feColorMatrix in="SourceAlpha" type="matrix" values="0 0 0 0 0 0 0 0 0 0 0 0 0 0 0 0 0 0 127 0" result="hardAlpha"/>
      <feOffset dy="18"/>
      <feGaussianBlur stdDeviation="22"/>
      <feColorMatrix type="matrix" values="0 0 0 0 0.360784 0 0 0 0 0.239216 0 0 0 0 0.180392 0 0 0 0.16 0"/>
      <feBlend mode="normal" in2="BackgroundImageFix" result="effect1_dropShadow_1_1"/>
      <feBlend mode="normal" in="SourceGraphic" in2="effect1_dropShadow_1_1" result="shape"/>
    </filter>
  </defs>
  <g filter="url(#tn_shadow)">
    <rect x="70" y="52" width="372" height="372" rx="96" fill="url(#tn_bg)"/>
    <rect x="70.75" y="52.75" width="370.5" height="370.5" rx="95.25" stroke="#F0E1D6" stroke-width="1.5"/>
    <circle cx="360" cy="150" r="112" fill="url(#tn_glow)"/>
    <path d="M190 312C190 312 150 232 230 152C310 72 430 152 350 232C270 312 190 312 190 312Z" stroke="#8C5A44" stroke-width="30" stroke-linecap="round" stroke-linejoin="round"/>
    <path d="M322 184C322 184 362 264 282 344C202 424 82 344 162 264C242 184 322 184 322 184Z" stroke="#5D3D2E" stroke-width="30" stroke-linecap="round" stroke-linejoin="round"/>
    <circle cx="256" cy="248" r="14" fill="#8C5A44"/>
  </g>
</svg>